@startuml
skinparam nodesep 60
skinparam ranksep 60
skinparam linetype polyline
skinparam NoteBackgroundColor lightyellow
skinparam NoteBorderColor gray
skinparam StateBackgroundColor #F5F5F5
skinparam StateBorderColor gray

state "cerrarCicloAcademico()" as cerrarCicloAcademico {

    state " " as Paso1
    state " " as Paso2

    [*] -[#green]-> Paso1
    note on link
      <b>Secretaría</b> solicita cerrar el ciclo académico actual
    end note

    Paso1 -[#green]-> Paso2
    note on link
      <b>Sistema</b> permite acceder al módulo de cierre
      • Muestra información del ciclo para confirmación
    end note

    Paso2 -[#green]-> [*]
    note on link
      <b>Secretaría</b> revisa la información
      • Permite solicitar confirmar cierre
      • Permite solicitar cancelar operación
    end note
}

state "MATRICULAS_ABIERTO" as MATRICULAS_ABIERTO

cerrarCicloAcademico -[#green]---> MATRICULAS_ABIERTO
note right on link
  abrirMatriculas() - ciclo cerrado
end note

cerrarCicloAcademico -[#blue]---> MATRICULAS_ABIERTO
note right on link
  abrirMatriculas() - cancelar operación
end note
@enduml
