@startuml
skinparam nodesep 60
skinparam ranksep 60
skinparam linetype polyline
skinparam NoteBackgroundColor lightyellow
skinparam NoteBorderColor gray
skinparam StateBackgroundColor #F5F5F5
skinparam StateBorderColor gray

state "consultarDetalleMatricula()" as consultarDetalleMatricula {

    state " " as Paso1
    state " " as Paso2

    [*] -[#green]-> Paso1
    note on link
      <b>Secretaría</b> solicita mostrar detalle de matrícula
    end note

    Paso1 -[#green]-> Paso2
    note on link
      <b>Sistema</b> muestra datos de la matrícula
    end note

    Paso2 -[#green]-> [*]
    note on link
      <b>Secretaría</b> revisa la información de la matrícula
      • Permite solicitar regresar al listado
      • Permite solicitar cancelar operación
    end note
}

state "MATRICULAS_ABIERTO" as MATRICULAS_ABIERTO

consultarDetalleMatricula -[#green]---> MATRICULAS_ABIERTO
note right on link
  abrirMatriculas()
end note

consultarDetalleMatricula -[#blue]---> MATRICULAS_ABIERTO
note right on link
  cancelar operación
end note
@enduml
